<svg width="40" height="24" viewBox="0 0 40 24" fill="none" xmlns="http://www.w3.org/2000/svg">
<path id="Vector" d="M19.921 14.2116C21.4468 12.6829 22.8726 11.3021 24.2733 9.89663C27.1998 7.01176 30.1263 4.10223 33.0778 1.21735C34.2784 0.0338142 35.7041 -0.286726 37.3049 0.255729C38.8557 0.798184 39.7311 1.95706 39.9313 3.55977C40.0813 4.76797 39.7061 5.82822 38.8307 6.66656C33.478 11.9678 28.1252 17.2444 22.7475 22.521C21.1967 24.0498 18.8205 24.0498 17.2697 22.5457C11.8669 17.2691 6.46419 11.9678 1.11146 6.61725C-0.439331 5.06385 -0.33928 2.64746 1.23652 1.14338C2.78731 -0.360697 5.23856 -0.385356 6.86439 1.21735C10.9915 5.23645 15.0686 9.30486 19.1707 13.3486C19.3958 13.5705 19.6209 13.8418 19.921 14.2116Z" fill="#D9D9D9"/>
</svg>
