<svg width="35" height="38" viewBox="0 0 35 38" fill="none" xmlns="http://www.w3.org/2000/svg">
<path d="M17.4775 11.9753C17.171 11.5846 17.0177 11.3379 16.7988 11.1323C13.2299 7.78055 9.66097 4.40827 6.09206 1.05655C5.0192 0.0695379 3.74928 -0.238903 2.32609 0.213477C0.96859 0.665856 0.202259 1.6323 0.0270977 2.96888C-0.104273 3.95589 0.246049 4.86065 0.990485 5.55978C5.67605 9.98076 10.3616 14.4017 15.091 18.7816C16.4704 20.077 18.5504 20.0565 19.9517 18.7405C24.6154 14.3812 29.279 10.0219 33.9208 5.62147C35.344 4.26433 35.3221 2.20806 33.9208 0.933171C32.5414 -0.321153 30.3957 -0.321153 28.9944 0.994859C25.3817 4.34658 21.8128 7.73942 18.222 11.1117C18.003 11.3173 17.8279 11.5641 17.4775 11.9753Z" fill="#D0D2C4"/>
<path d="M17.4557 30.1116C18.7913 28.8367 20.0393 27.6852 21.2654 26.5131C23.8272 24.1073 26.3889 21.6809 28.9725 19.275C30.0235 18.288 31.2715 18.0207 32.6728 18.4731C34.0303 18.9255 34.7966 19.8919 34.9718 21.2285C35.1032 22.2361 34.7747 23.1203 34.0084 23.8194C29.3228 28.2404 24.6373 32.6408 19.9298 37.0412C18.5723 38.3161 16.4923 38.3161 15.1348 37.0618C10.4054 32.6613 5.67607 28.2404 0.990505 23.7783C-0.366995 22.4828 -0.279414 20.4677 1.09998 19.2133C2.45748 17.959 4.60321 17.9385 6.02639 19.275C9.6391 22.6268 13.208 26.0196 16.7988 29.3919C16.9959 29.5769 17.1929 29.8031 17.4557 30.1116Z" fill="#D0D2C4"/>
</svg>
