<svg width="63" height="63" viewBox="0 0 63 63" fill="none" xmlns="http://www.w3.org/2000/svg">
<path id="Vector" d="M45.0257 39.6226H42.1801L41.1715 38.6501C44.7015 34.5437 46.8268 29.2127 46.8268 23.4134C46.8268 10.482 36.3448 0 23.4134 0C10.482 0 0 10.482 0 23.4134C0 36.3448 10.482 46.8268 23.4134 46.8268C29.2127 46.8268 34.5437 44.7015 38.6501 41.1715L39.6226 42.1801V45.0257L57.6329 63L63 57.6329L45.0257 39.6226ZM23.4134 39.6226C14.4443 39.6226 7.20412 32.3825 7.20412 23.4134C7.20412 14.4443 14.4443 7.20412 23.4134 7.20412C32.3825 7.20412 39.6226 14.4443 39.6226 23.4134C39.6226 32.3825 32.3825 39.6226 23.4134 39.6226Z" fill="#343434"/>
</svg>
